<?xml version="1.0" encoding="UTF-8" standalone="no"?>
<!DOCTYPE svg PUBLIC "-//W3C//DTD SVG 1.1//EN" "http://www.w3.org/Graphics/SVG/1.1/DTD/svg11.dtd">
<svg width="100%" height="100%" viewBox="0 0 561 53" version="1.1" xmlns="http://www.w3.org/2000/svg" xmlns:xlink="http://www.w3.org/1999/xlink" xml:space="preserve" xmlns:serif="http://www.serif.com/" style="fill-rule:evenodd;clip-rule:evenodd;stroke-linejoin:round;stroke-miterlimit:1.41421;">
    <g transform="matrix(1,0,0,1,-1424.51,-54.9563)">
        <g transform="matrix(2.40854,0,0,2.40854,1435.68,54.0425)">
            <g>
                <g transform="matrix(1,0,0,1,-6.3896,-1.67891)">
                    <path id="path4" d="M19.736,2.859C20.74,2.328 21.868,2.052 23.003,2.078C28.075,2.076 33.147,2.095 38.219,2.072C37.557,3.541 36.854,5.475 34.973,5.644C30.26,5.775 25.535,5.632 20.817,5.71C19.651,5.69 18.489,6.304 17.995,7.388C16.979,9.379 16.067,11.423 15.069,13.426C19.112,13.423 23.157,13.429 27.201,13.42C26.847,14.108 26.582,14.872 26.026,15.43C25.348,15.964 24.425,15.865 23.62,15.889C20.489,15.848 17.354,15.923 14.224,15.845C13.095,17.961 12.142,20.163 11.051,22.298C10.554,23.305 9.467,23.956 8.342,23.917C6.146,23.917 3.945,23.997 1.751,23.845L1.751,23.727C1.789,23.736 1.867,23.758 1.907,23.767C3.807,19.663 5.788,15.602 7.751,11.527C8.716,9.486 10.366,7.8 12.354,6.73C14.8,5.412 17.275,4.15 19.736,2.859Z" style="fill:rgb(11,21,96);fill-rule:nonzero;"/>
                    <path id="path6" d="M40.747,3.859C41.256,2.781 42.422,2.109 43.6,2.09C45.756,2.056 47.912,2.103 50.069,2.068C46.895,8.744 43.645,15.387 40.448,22.053C40.001,23.144 38.905,23.928 37.714,23.911C35.499,23.942 33.283,23.918 31.069,23.921C34.291,17.234 37.52,10.548 40.747,3.859Z" style="fill:rgb(11,21,96);fill-rule:nonzero;"/>
                    <path id="path8" d="M58.716,2.195C59.422,1.844 60.241,2.242 60.625,2.873C63.784,7.217 66.962,11.548 70.152,15.867C70.503,16.345 70.767,16.873 71.027,17.404C73.048,13.406 74.927,9.335 76.883,5.306C77.386,4.309 77.755,3.109 78.812,2.55C80.273,1.769 81.997,2.175 83.581,2.088C80.057,9.367 76.54,16.648 73.02,23.93C71.235,23.905 69.448,23.967 67.666,23.903C66.557,23.868 65.701,23.047 65.072,22.215C62.607,18.934 60.138,15.655 57.672,12.381C57.141,11.708 56.625,11.025 56.259,10.247C54.253,14.241 52.406,18.314 50.425,22.321C49.969,23.202 49.053,23.849 48.053,23.903C46.887,23.97 45.721,23.913 44.557,23.927C47.037,18.608 49.578,13.311 52.112,8.017C52.932,6.273 54.157,4.673 55.843,3.698C56.777,3.154 57.725,2.629 58.716,2.195Z" style="fill:rgb(11,21,96);fill-rule:nonzero;"/>
                    <path id="path10" d="M93.111,2.195C93.803,1.851 94.609,2.223 95,2.839C98.166,7.186 101.348,11.527 104.544,15.855C104.902,16.336 105.166,16.877 105.432,17.411C107.68,12.933 109.783,8.378 111.985,3.874C112.446,2.891 113.455,2.241 114.522,2.128C115.667,2.03 116.817,2.106 117.963,2.075C114.484,9.378 110.932,16.646 107.412,23.933C105.619,23.903 103.822,23.97 102.027,23.903C100.839,23.841 99.97,22.909 99.314,22.011C96.517,18.242 93.64,14.533 90.876,10.739C90.786,10.667 90.605,10.517 90.515,10.446C88.714,14.294 86.839,18.105 85.023,21.946C84.611,22.889 83.787,23.727 82.73,23.868C81.484,23.999 80.228,23.892 78.98,23.939C81.001,19.46 83.17,15.04 85.277,10.596C86.177,8.825 86.865,6.899 88.2,5.389C89.509,3.891 91.355,3.044 93.111,2.195Z" style="fill:rgb(11,21,96);fill-rule:nonzero;"/>
                    <path id="path12" d="M130.689,2.891C131.681,2.353 132.798,2.063 133.931,2.08C136.329,2.08 138.73,2.078 141.133,2.08C142.876,2.074 144.592,2.719 145.933,3.83C147.467,5.012 149.045,6.137 150.564,7.337C151.247,7.806 151.298,8.721 150.909,9.406C148.605,14.253 146.23,19.068 143.928,23.918C141.938,23.918 139.944,23.945 137.953,23.912C136.881,23.986 135.997,22.74 136.521,21.77C137.375,19.773 138.431,17.865 139.312,15.879C134.603,15.868 129.896,15.876 125.187,15.876C124.156,17.963 123.17,20.075 122.14,22.163C121.676,23.135 120.702,23.885 119.603,23.903C117.339,23.963 115.075,23.889 112.812,23.937C114.777,19.802 116.767,15.68 118.751,11.555C119.714,9.521 121.336,7.826 123.313,6.758C125.766,5.457 128.229,4.176 130.689,2.891M129.3,7.394C128.287,9.382 127.375,11.422 126.372,13.419C131.088,13.432 135.8,13.422 140.516,13.422C141.463,11.434 142.425,9.453 143.395,7.475C143.547,7.056 143.914,6.603 143.688,6.147C143.319,5.61 142.626,5.712 142.069,5.688C138.735,5.713 135.401,5.667 132.069,5.71C130.902,5.679 129.791,6.332 129.3,7.394Z" style="fill:rgb(11,21,96);fill-rule:nonzero;"/>
                    <path id="path14" d="M158.925,4.568C159.365,3.346 160.348,2.262 161.703,2.129C163.984,2.004 166.275,2.132 168.558,2.067C165.48,8.714 162.204,15.274 159.056,21.889C158.626,22.953 157.65,23.842 156.467,23.903C154.176,23.965 151.883,23.913 149.589,23.927C152.703,17.472 155.822,11.025 158.925,4.568Z" style="fill:rgb(11,21,96);fill-rule:nonzero;"/>
                    <path id="path16" d="M178.756,4.382C180.631,3.51 182.394,2.113 184.55,2.091C187.06,2.074 189.572,2.063 192.081,2.097C194.359,2.175 196.303,3.485 197.997,4.891C199.231,5.95 200.763,6.698 201.75,8.016L201.75,8.825C201.172,10.317 200.497,11.776 199.75,13.188C198.909,14.694 197.075,15.172 195.481,15.333C192.845,15.542 190.2,15.278 187.565,15.481C187.639,15.583 187.791,15.786 187.865,15.884C189.378,16.444 191.575,15.912 192.49,17.565C193.771,19.694 195.052,21.823 196.352,23.942C193.778,23.893 191.2,23.961 188.623,23.911C187.639,23.95 186.717,23.413 186.223,22.575C185.039,20.725 183.981,18.801 182.829,16.934C182.389,16.209 181.707,15.562 180.829,15.472C179.348,15.325 177.857,15.45 176.373,15.403C175.285,17.569 174.258,19.762 173.185,21.934C172.73,22.996 171.739,23.89 170.536,23.901C168.269,23.975 166.005,23.893 163.739,23.937C165.855,19.538 167.898,15.097 170.107,10.747C171.885,7.4 175.641,6.119 178.756,4.382M180.044,7.24C179.075,9.121 178.203,11.052 177.256,12.943C181.047,12.937 184.838,12.955 188.628,12.933C189.9,12.936 191.422,12.674 192.097,11.454C192.787,10.155 193.354,8.792 194.023,7.483C194.185,7.057 194.56,6.586 194.307,6.12C193.916,5.63 193.253,5.692 192.699,5.685C189.367,5.71 186.036,5.663 182.705,5.707C181.628,5.713 180.544,6.263 180.044,7.24Z" style="fill:rgb(11,21,96);fill-rule:nonzero;"/>
                </g>
                <g transform="matrix(0.191669,0,0,0.191669,86.129,0.25551)">
                    <path d="M587.156,65.102L587.156,58.206L624.359,58.206L624.359,65.102L610.057,65.102L610.057,113.629L601.458,113.629L601.458,65.102L587.156,65.102Z" style="fill:rgb(13,20,96);fill-rule:nonzero;"/>
                    <path d="M661.137,94.72L671.268,113.629L662.159,113.629L650.712,91.494L641.982,91.494L641.982,113.629L633.384,113.629L633.384,58.206L651.092,58.206C657.448,58.206 662.187,59.667 665.309,62.59C668.431,65.512 669.991,69.639 669.991,74.971C669.991,76.787 669.764,78.561 669.31,80.291C668.856,82.021 668.09,83.61 667.012,85.056C665.933,86.503 664.5,87.723 662.712,88.716C660.925,89.709 658.697,90.375 656.029,90.716L661.137,94.72ZM650.542,85.705C654.328,85.705 656.998,84.942 658.551,83.416C660.105,81.889 660.882,79.261 660.882,75.53L660.882,74.258C660.882,72.449 660.698,70.937 660.331,69.722C659.964,68.507 659.357,67.532 658.509,66.797C657.661,66.062 656.573,65.553 655.246,65.271C653.918,64.988 652.294,64.847 650.373,64.847L641.982,64.847L641.982,85.705L650.542,85.705Z" style="fill:rgb(13,20,96);fill-rule:nonzero;"/>
                    <rect x="681.995" y="58.206" width="8.599" height="55.423" style="fill:rgb(13,20,96);fill-rule:nonzero;"/>
                    <path d="M704.811,58.206L722.519,58.206C728.819,58.206 733.516,59.81 736.609,63.017C739.702,66.223 741.249,70.523 741.249,75.914C741.249,78.525 740.867,80.923 740.103,83.108C739.339,85.293 738.193,87.181 736.666,88.77C735.138,90.359 733.2,91.608 730.852,92.516C728.504,93.424 725.745,93.878 722.576,93.878L713.41,93.878L713.41,113.629L704.811,113.629L704.811,58.206ZM721.97,87.833C725.699,87.833 728.34,86.982 729.894,85.279C731.448,83.576 732.225,80.682 732.225,76.595L732.225,75.318C732.225,71.346 731.434,68.607 729.851,67.103C728.269,65.599 725.585,64.847 721.8,64.847L713.41,64.847L713.41,87.833L721.97,87.833Z" style="fill:rgb(13,20,96);fill-rule:nonzero;"/>
                </g>
            </g>
        </g>
    </g>
</svg>
