<?xml version="1.0" encoding="UTF-8" standalone="no"?>
<!DOCTYPE svg PUBLIC "-//W3C//DTD SVG 1.1//EN" "http://www.w3.org/Graphics/SVG/1.1/DTD/svg11.dtd">
<svg width="100%" height="100%" viewBox="0 0 813 53" version="1.1" xmlns="http://www.w3.org/2000/svg" xmlns:xlink="http://www.w3.org/1999/xlink" xml:space="preserve" xmlns:serif="http://www.serif.com/" style="fill-rule:evenodd;clip-rule:evenodd;stroke-linejoin:round;stroke-miterlimit:1.41421;">
    <g transform="matrix(1,0,0,1,-42.6104,-54.9563)">
        <g transform="matrix(2.40854,0,0,2.40854,53.7826,54.0425)">
            <g>
                <g transform="matrix(1,0,0,1,-6.3896,-1.67891)">
                    <path id="path4" d="M19.736,2.859C20.74,2.328 21.868,2.052 23.003,2.078C28.075,2.076 33.147,2.095 38.219,2.072C37.557,3.541 36.854,5.475 34.973,5.644C30.26,5.775 25.535,5.632 20.817,5.71C19.651,5.69 18.489,6.304 17.995,7.388C16.979,9.379 16.067,11.423 15.069,13.426C19.112,13.423 23.157,13.429 27.201,13.42C26.847,14.108 26.582,14.872 26.026,15.43C25.348,15.964 24.425,15.865 23.62,15.889C20.489,15.848 17.354,15.923 14.224,15.845C13.095,17.961 12.142,20.163 11.051,22.298C10.554,23.305 9.467,23.956 8.342,23.917C6.146,23.917 3.945,23.997 1.751,23.845L1.751,23.727C1.789,23.736 1.867,23.758 1.907,23.767C3.807,19.663 5.788,15.602 7.751,11.527C8.716,9.486 10.366,7.8 12.354,6.73C14.8,5.412 17.275,4.15 19.736,2.859Z" style="fill:rgb(11,21,96);fill-rule:nonzero;"/>
                    <path id="path6" d="M40.747,3.859C41.256,2.781 42.422,2.109 43.6,2.09C45.756,2.056 47.912,2.103 50.069,2.068C46.895,8.744 43.645,15.387 40.448,22.053C40.001,23.144 38.905,23.928 37.714,23.911C35.499,23.942 33.283,23.918 31.069,23.921C34.291,17.234 37.52,10.548 40.747,3.859Z" style="fill:rgb(11,21,96);fill-rule:nonzero;"/>
                    <path id="path8" d="M58.716,2.195C59.422,1.844 60.241,2.242 60.625,2.873C63.784,7.217 66.962,11.548 70.152,15.867C70.503,16.345 70.767,16.873 71.027,17.404C73.048,13.406 74.927,9.335 76.883,5.306C77.386,4.309 77.755,3.109 78.812,2.55C80.273,1.769 81.997,2.175 83.581,2.088C80.057,9.367 76.54,16.648 73.02,23.93C71.235,23.905 69.448,23.967 67.666,23.903C66.557,23.868 65.701,23.047 65.072,22.215C62.607,18.934 60.138,15.655 57.672,12.381C57.141,11.708 56.625,11.025 56.259,10.247C54.253,14.241 52.406,18.314 50.425,22.321C49.969,23.202 49.053,23.849 48.053,23.903C46.887,23.97 45.721,23.913 44.557,23.927C47.037,18.608 49.578,13.311 52.112,8.017C52.932,6.273 54.157,4.673 55.843,3.698C56.777,3.154 57.725,2.629 58.716,2.195Z" style="fill:rgb(11,21,96);fill-rule:nonzero;"/>
                    <path id="path10" d="M93.111,2.195C93.803,1.851 94.609,2.223 95,2.839C98.166,7.186 101.348,11.527 104.544,15.855C104.902,16.336 105.166,16.877 105.432,17.411C107.68,12.933 109.783,8.378 111.985,3.874C112.446,2.891 113.455,2.241 114.522,2.128C115.667,2.03 116.817,2.106 117.963,2.075C114.484,9.378 110.932,16.646 107.412,23.933C105.619,23.903 103.822,23.97 102.027,23.903C100.839,23.841 99.97,22.909 99.314,22.011C96.517,18.242 93.64,14.533 90.876,10.739C90.786,10.667 90.605,10.517 90.515,10.446C88.714,14.294 86.839,18.105 85.023,21.946C84.611,22.889 83.787,23.727 82.73,23.868C81.484,23.999 80.228,23.892 78.98,23.939C81.001,19.46 83.17,15.04 85.277,10.596C86.177,8.825 86.865,6.899 88.2,5.389C89.509,3.891 91.355,3.044 93.111,2.195Z" style="fill:rgb(11,21,96);fill-rule:nonzero;"/>
                    <path id="path12" d="M130.689,2.891C131.681,2.353 132.798,2.063 133.931,2.08C136.329,2.08 138.73,2.078 141.133,2.08C142.876,2.074 144.592,2.719 145.933,3.83C147.467,5.012 149.045,6.137 150.564,7.337C151.247,7.806 151.298,8.721 150.909,9.406C148.605,14.253 146.23,19.068 143.928,23.918C141.938,23.918 139.944,23.945 137.953,23.912C136.881,23.986 135.997,22.74 136.521,21.77C137.375,19.773 138.431,17.865 139.312,15.879C134.603,15.868 129.896,15.876 125.187,15.876C124.156,17.963 123.17,20.075 122.14,22.163C121.676,23.135 120.702,23.885 119.603,23.903C117.339,23.963 115.075,23.889 112.812,23.937C114.777,19.802 116.767,15.68 118.751,11.555C119.714,9.521 121.336,7.826 123.313,6.758C125.766,5.457 128.229,4.176 130.689,2.891M129.3,7.394C128.287,9.382 127.375,11.422 126.372,13.419C131.088,13.432 135.8,13.422 140.516,13.422C141.463,11.434 142.425,9.453 143.395,7.475C143.547,7.056 143.914,6.603 143.688,6.147C143.319,5.61 142.626,5.712 142.069,5.688C138.735,5.713 135.401,5.667 132.069,5.71C130.902,5.679 129.791,6.332 129.3,7.394Z" style="fill:rgb(11,21,96);fill-rule:nonzero;"/>
                    <path id="path14" d="M158.925,4.568C159.365,3.346 160.348,2.262 161.703,2.129C163.984,2.004 166.275,2.132 168.558,2.067C165.48,8.714 162.204,15.274 159.056,21.889C158.626,22.953 157.65,23.842 156.467,23.903C154.176,23.965 151.883,23.913 149.589,23.927C152.703,17.472 155.822,11.025 158.925,4.568Z" style="fill:rgb(11,21,96);fill-rule:nonzero;"/>
                    <path id="path16" d="M178.756,4.382C180.631,3.51 182.394,2.113 184.55,2.091C187.06,2.074 189.572,2.063 192.081,2.097C194.359,2.175 196.303,3.485 197.997,4.891C199.231,5.95 200.763,6.698 201.75,8.016L201.75,8.825C201.172,10.317 200.497,11.776 199.75,13.188C198.909,14.694 197.075,15.172 195.481,15.333C192.845,15.542 190.2,15.278 187.565,15.481C187.639,15.583 187.791,15.786 187.865,15.884C189.378,16.444 191.575,15.912 192.49,17.565C193.771,19.694 195.052,21.823 196.352,23.942C193.778,23.893 191.2,23.961 188.623,23.911C187.639,23.95 186.717,23.413 186.223,22.575C185.039,20.725 183.981,18.801 182.829,16.934C182.389,16.209 181.707,15.562 180.829,15.472C179.348,15.325 177.857,15.45 176.373,15.403C175.285,17.569 174.258,19.762 173.185,21.934C172.73,22.996 171.739,23.89 170.536,23.901C168.269,23.975 166.005,23.893 163.739,23.937C165.855,19.538 167.898,15.097 170.107,10.747C171.885,7.4 175.641,6.119 178.756,4.382M180.044,7.24C179.075,9.121 178.203,11.052 177.256,12.943C181.047,12.937 184.838,12.955 188.628,12.933C189.9,12.936 191.422,12.674 192.097,11.454C192.787,10.155 193.354,8.792 194.023,7.483C194.185,7.057 194.56,6.586 194.307,6.12C193.916,5.63 193.253,5.692 192.699,5.685C189.367,5.71 186.036,5.663 182.705,5.707C181.628,5.713 180.544,6.263 180.044,7.24Z" style="fill:rgb(11,21,96);fill-rule:nonzero;"/>
                </g>
                <g transform="matrix(0.191669,0,0,0.191669,86.129,0.25551)">
                    <path d="M594.818,113.629L587.411,113.629L605.374,58.206L613.717,58.206L631.34,113.629L622.486,113.629L619.251,102.647L598.223,102.647L594.818,113.629ZM611.163,75.773L609.12,64.762L606.651,75.773L600.096,96.857L617.463,96.857L611.163,75.773Z" style="fill:rgb(13,20,96);fill-rule:nonzero;"/>
                    <path d="M640.62,58.206L657.221,58.206C665.167,58.206 671.07,60.576 674.929,65.315C678.789,70.054 680.718,76.879 680.718,85.79C680.718,95.098 678.746,102.065 674.801,106.69C670.857,111.316 664.741,113.629 656.455,113.629L640.62,113.629L640.62,58.206ZM656.004,107.244C658.605,107.244 660.895,106.974 662.874,106.434C664.853,105.894 666.493,104.884 667.793,103.405C669.094,101.927 670.083,99.865 670.762,97.221C671.44,94.576 671.779,91.121 671.779,86.856L671.779,84.211C671.779,80.344 671.454,77.173 670.804,74.699C670.154,72.225 669.179,70.278 667.878,68.856C666.578,67.434 664.924,66.453 662.917,65.912C660.909,65.372 658.548,65.102 655.834,65.102L649.219,65.102L649.219,107.244L656.004,107.244Z" style="fill:rgb(13,20,96);fill-rule:nonzero;"/>
                    <path d="M685.826,58.206L694.68,58.206L705.748,94.899L708.132,108.265L710.6,94.899L721.668,58.206L729.585,58.206L711.877,113.629L703.79,113.629L685.826,58.206Z" style="fill:rgb(13,20,96);fill-rule:nonzero;"/>
                    <path d="M738.865,58.206L769.769,58.206L769.769,65.102L747.464,65.102L747.464,82.044L766.619,82.044L766.619,88.429L747.464,88.429L747.464,106.903L771.301,106.903L771.301,113.629L738.865,113.629L738.865,58.206Z" style="fill:rgb(13,20,96);fill-rule:nonzero;"/>
                    <path d="M781.943,58.206L791.308,58.206L808.42,91.324L814.294,107.414L812.251,88.685L812.251,58.206L819.828,58.206L819.828,113.629L810.804,113.629L792.84,79.15L787.562,63.91L789.435,81.618L789.435,113.629L781.943,113.629L781.943,58.206Z" style="fill:rgb(13,20,96);fill-rule:nonzero;"/>
                    <path d="M828.937,65.102L828.937,58.206L866.141,58.206L866.141,65.102L851.838,65.102L851.838,113.629L843.24,113.629L843.24,65.102L828.937,65.102Z" style="fill:rgb(13,20,96);fill-rule:nonzero;"/>
                    <path d="M903.77,58.206L912.369,58.206L912.369,113.629L907.091,113.629L904.707,108.18L901.302,112.863C900.393,113.26 899.074,113.686 897.343,114.14C895.612,114.594 893.583,114.821 891.256,114.821C888.531,114.821 886.148,114.424 884.104,113.629C882.061,112.834 880.358,111.557 878.996,109.798C877.634,108.038 876.598,105.768 875.889,102.987C875.179,100.206 874.825,96.857 874.825,92.941L874.825,58.206L883.423,58.206L883.423,95.302C883.423,97.918 883.593,100.078 883.932,101.784C884.271,103.49 884.822,104.826 885.586,105.792C886.349,106.758 887.338,107.44 888.553,107.838C889.768,108.237 891.223,108.436 892.918,108.436C895.462,108.436 897.567,108.123 899.234,107.498C900.902,106.873 902.414,106.162 903.77,105.366L903.77,58.206Z" style="fill:rgb(13,20,96);fill-rule:nonzero;"/>
                    <path d="M953.915,94.72L964.046,113.629L954.936,113.629L943.49,91.494L934.759,91.494L934.759,113.629L926.161,113.629L926.161,58.206L943.869,58.206C950.225,58.206 954.965,59.667 958.086,62.59C961.208,65.512 962.769,69.639 962.769,74.971C962.769,76.787 962.542,78.561 962.088,80.291C961.633,82.021 960.867,83.61 959.789,85.056C958.711,86.503 957.277,87.723 955.49,88.716C953.702,89.709 951.474,90.375 948.807,90.716L953.915,94.72ZM943.319,85.705C947.105,85.705 949.775,84.942 951.329,83.416C952.882,81.889 953.659,79.261 953.659,75.53L953.659,74.258C953.659,72.449 953.476,70.937 953.109,69.722C952.741,68.507 952.134,67.532 951.286,66.797C950.438,66.062 949.351,65.553 948.023,65.271C946.695,64.988 945.071,64.847 943.15,64.847L934.759,64.847L934.759,85.705L943.319,85.705Z" style="fill:rgb(13,20,96);fill-rule:nonzero;"/>
                    <path d="M974.262,58.206L1005.17,58.206L1005.17,65.102L982.86,65.102L982.86,82.044L1002.02,82.044L1002.02,88.429L982.86,88.429L982.86,106.903L1006.7,106.903L1006.7,113.629L974.262,113.629L974.262,58.206Z" style="fill:rgb(13,20,96);fill-rule:nonzero;"/>
                    <path d="M1036.75,58.206L1067.57,58.206L1067.57,65.102L1045.35,65.102L1045.35,83.662L1064.76,83.662L1064.76,90.047L1045.35,90.047L1045.35,113.629L1036.75,113.629L1036.75,58.206Z" style="fill:rgb(13,20,96);fill-rule:nonzero;"/>
                    <rect x="1079.15" y="58.206" width="8.599" height="55.423" style="fill:rgb(13,20,96);fill-rule:nonzero;"/>
                    <path d="M1102.05,58.206L1111.41,58.206L1128.53,91.324L1134.4,107.414L1132.36,88.685L1132.36,58.206L1139.93,58.206L1139.93,113.629L1130.91,113.629L1112.95,79.15L1107.67,63.91L1109.54,81.618L1109.54,113.629L1102.05,113.629L1102.05,58.206Z" style="fill:rgb(13,20,96);fill-rule:nonzero;"/>
                    <path d="M1153.73,58.206L1170.33,58.206C1178.27,58.206 1184.17,60.576 1188.03,65.315C1191.89,70.054 1193.82,76.879 1193.82,85.79C1193.82,95.098 1191.85,102.065 1187.91,106.69C1183.96,111.316 1177.85,113.629 1169.56,113.629L1153.73,113.629L1153.73,58.206ZM1169.11,107.244C1171.71,107.244 1174,106.974 1175.98,106.434C1177.96,105.894 1179.6,104.884 1180.9,103.405C1182.2,101.927 1183.19,99.865 1183.87,97.221C1184.55,94.576 1184.88,91.121 1184.88,86.856L1184.88,84.211C1184.88,80.344 1184.56,77.173 1183.91,74.699C1183.26,72.225 1182.28,70.278 1180.98,68.856C1179.68,67.434 1178.03,66.453 1176.02,65.912C1174.01,65.372 1171.65,65.102 1168.94,65.102L1162.32,65.102L1162.32,107.244L1169.11,107.244Z" style="fill:rgb(13,20,96);fill-rule:nonzero;"/>
                    <path d="M1204.63,58.206L1235.54,58.206L1235.54,65.102L1213.23,65.102L1213.23,82.044L1232.39,82.044L1232.39,88.429L1213.23,88.429L1213.23,106.903L1237.07,106.903L1237.07,113.629L1204.63,113.629L1204.63,58.206Z" style="fill:rgb(13,20,96);fill-rule:nonzero;"/>
                    <path d="M1275.38,94.72L1285.51,113.629L1276.4,113.629L1264.96,91.494L1256.23,91.494L1256.23,113.629L1247.63,113.629L1247.63,58.206L1265.34,58.206C1271.69,58.206 1276.43,59.667 1279.55,62.59C1282.67,65.512 1284.24,69.639 1284.24,74.971C1284.24,76.787 1284.01,78.561 1283.56,80.291C1283.1,82.021 1282.34,83.61 1281.26,85.056C1280.18,86.503 1278.75,87.723 1276.96,88.716C1275.17,89.709 1272.94,90.375 1270.27,90.716L1275.38,94.72ZM1264.79,85.705C1268.57,85.705 1271.24,84.942 1272.8,83.416C1274.35,81.889 1275.13,79.261 1275.13,75.53L1275.13,74.258C1275.13,72.449 1274.94,70.937 1274.58,69.722C1274.21,68.507 1273.6,67.532 1272.75,66.797C1271.91,66.062 1270.82,65.553 1269.49,65.271C1268.16,64.988 1266.54,64.847 1264.62,64.847L1256.23,64.847L1256.23,85.705L1264.79,85.705Z" style="fill:rgb(13,20,96);fill-rule:nonzero;"/>
                </g>
            </g>
        </g>
    </g>
</svg>
