<?xml version="1.0" encoding="UTF-8" standalone="no"?>
<!DOCTYPE svg PUBLIC "-//W3C//DTD SVG 1.1//EN" "http://www.w3.org/Graphics/SVG/1.1/DTD/svg11.dtd">
<svg width="100%" height="100%" viewBox="0 0 90 90" version="1.1" xmlns="http://www.w3.org/2000/svg" xmlns:xlink="http://www.w3.org/1999/xlink" xml:space="preserve" xmlns:serif="http://www.serif.com/" style="fill-rule:evenodd;clip-rule:evenodd;stroke-linejoin:round;stroke-miterlimit:1.41421;">
    <g transform="matrix(1,0,0,1,-933.861,-310.892)">
        <g transform="matrix(1,0,0,1,0.791793,-44.558)">
            <g transform="matrix(1.14518,-1.14655,2.02107,2.01866,-1580.29,-119.125)">
                <g transform="matrix(1,0,0,1,-44.6723,-4.89702)">
                    <g transform="matrix(0.381526,0.216698,-0.431658,0.244587,736.592,459.416)">
                        <ellipse cx="968.044" cy="399.46" rx="50.921" ry="45.061" style="fill:rgb(13,20,96);"/>
                    </g>
                    <g transform="matrix(0.000902519,-0.616498,0.669003,0.000315192,29.7157,3056.59)">
                        <rect x="3703.39" y="1322.62" width="6.418" height="41.72" style="fill:white;"/>
                    </g>
                    <g transform="matrix(1.02274,-0.579786,0.494186,0.280551,-3522.61,2537.87)">
                        <rect x="3703.39" y="1322.62" width="6.418" height="41.72" style="fill:white;"/>
                    </g>
                </g>
                <g transform="matrix(1.08298,-4.62514e-16,1.28621e-16,0.372067,-3116.52,261.044)">
                    <rect x="3703.39" y="1322.62" width="6.418" height="41.72" style="fill:white;"/>
                </g>
            </g>
        </g>
    </g>
</svg>
